<svg version="1.1" id="Layer_1" xmlns="http://www.w3.org/2000/svg" xmlns:xlink="http://www.w3.org/1999/xlink" x="0px" y="0px" viewBox="0 0 456.341 456.341" style="enable-background:new 0 0 456.341 456.341;" xml:space="preserve">
<g>
	<path style="fill: rgb(218, 165, 32);" d="M186.779,344.781h83.261c15.987,0,28.948,12.96,28.948,28.948v38.143H157.831v-38.143
		C157.831,357.741,170.792,344.781,186.779,344.781z" id="id_115"></path>
</g>
<g>
	<path style="fill: rgb(218, 165, 32);" d="M303.151,416.871h-149.56l-41.456-224.974c-3.301,0.781-6.342,2.526-8.682,5.044
		c-4.553,4.901-10.729,7.947-17.39,8.578l-34.32,3.25c-1.417,0.134-2.831,0.2-4.23,0.2c-19.734,0.002-37.354-13.081-42.839-32.389
		l-4.187-14.738c-1.086-3.822-0.335-7.833,2.061-11.003s6.048-4.989,10.021-4.989h94.535L141.8,97.983
		c8.358-11.809,22.038-18.886,36.561-18.886h100.02c14.523,0,28.203,7.077,36.594,18.932l34.664,47.821h94.135
		c3.974,0,7.626,1.818,10.021,4.989s3.146,7.181,2.061,11.003l-4.187,14.738c-5.874,20.678-25.67,34.21-47.07,32.189l-34.32-3.25
		c-6.661-0.631-12.837-3.677-17.391-8.578c-2.243-2.414-5.144-4.121-8.3-4.944L303.151,416.871z M161.916,406.871h132.909
		l41.549-225.48l4.215,0.052c7.424,0.091,14.577,3.259,19.625,8.692c2.882,3.102,6.792,5.03,11.008,5.43l34.319,3.25
		c16.6,1.573,31.952-8.929,36.508-24.966l4.187-14.738c0.303-1.066-0.133-1.863-0.42-2.243c-0.287-0.38-0.934-1.017-2.042-1.017
		h-99.237l-37.69-51.998c-6.552-9.256-17.181-14.755-28.464-14.755h-100.02c-11.284,0-21.912,5.499-28.431,14.709l-37.723,52.044
		H12.569c-1.109,0-1.756,0.637-2.042,1.017c-0.287,0.38-0.723,1.176-0.42,2.243l4.187,14.738
		c4.556,16.038,19.909,26.54,36.508,24.966l34.32-3.25c4.216-0.4,8.125-2.328,11.007-5.43c5.137-5.528,12.412-8.699,19.958-8.699
		h4.29L161.916,406.871z" id="id_116"></path>
</g>
<g>
	<path style="fill: rgb(218, 165, 32);" d="M187.691,84.097h-51.418V39.47h0c-17.325,0-31.369,14.044-31.369,31.369v13.258v0
		c0,16.579,12.862,30.155,29.153,31.292C134.057,115.389,155.031,83.832,187.691,84.097" id="id_117"></path>
</g>
<g>
	<path style="fill: none; stroke: rgb(218, 165, 32); stroke-width: 12; stroke-miterlimit: 10;" d="M136.273,115.466" id="id_118"></path>
</g>
<g>
	<path style="fill: none; stroke: rgb(218, 165, 32); stroke-width: 12; stroke-miterlimit: 10;" d="M315.717,115.466" id="id_119"></path>
</g>
<g>
	<path style="fill: rgb(218, 165, 32);" d="M321.104,115.005c14.758-2.554,25.982-15.42,25.982-30.908v0V70.839
		c0-17.325-14.044-31.369-31.369-31.369h0v44.627H271.09c0,0,39.24,8.165,44.627,19.537S321.104,115.005,321.104,115.005z" id="id_120"></path>
</g>
<g>
	<path style="fill: rgb(218, 165, 32);" d="M343.038,153.785l-36.193-49.933c-6.552-9.256-17.181-14.755-28.464-14.755h-100.02
		c-11.284,0-21.912,5.499-28.431,14.709l-36.226,49.979l-8.097-5.869L141.8,97.983c8.358-11.809,22.038-18.886,36.561-18.886h100.02
		c14.523,0,28.203,7.077,36.594,18.932l36.161,49.887L343.038,153.785z" id="id_121"></path>
</g>
<g>
	<path style="fill: rgb(218, 165, 32);" d="M270.508,344.781h-10v-88.273c0-34.608,17.39-66.43,46.518-85.121l33.289-21.361l-33.469-46.174
		c-6.552-9.256-17.181-14.755-28.464-14.755h-100.02c-11.02,0-21.501,5.295-28.039,14.166c-0.131,0.178-0.262,0.359-0.391,0.542
		l-33.503,46.222l33.289,21.361c29.128,18.691,46.518,50.512,46.518,85.121v88.273h-10v-88.273c0-31.187-15.67-59.861-41.918-76.705
		l-39.024-25.041l-0.941-5.113l37.45-51.666c0.132-0.188,0.301-0.421,0.471-0.652c8.416-11.418,21.907-18.234,36.09-18.234h100.02
		c14.523,0,28.203,7.077,36.594,18.932l37.418,51.622l-0.944,5.112l-39.023,25.04c-26.248,16.843-41.918,45.518-41.918,76.705
		V344.781z" id="id_122"></path>
</g>
<g>
	<circle style="fill: rgb(218, 165, 32);" cx="156.359" cy="227.415" r="10.841" id="id_123"></circle>
	<path style="fill: rgb(218, 165, 32);" d="M156.359,239.256c-6.529,0-11.84-5.312-11.84-11.84s5.312-11.841,11.84-11.841
		s11.841,5.312,11.841,11.841S162.887,239.256,156.359,239.256z M156.359,217.575c-5.426,0-9.84,4.415-9.84,9.841
		c0,5.426,4.415,9.84,9.84,9.84c5.426,0,9.841-4.415,9.841-9.84C166.199,221.989,161.785,217.575,156.359,217.575z" id="id_124"></path>
</g>
<g>
	<circle style="fill: rgb(218, 165, 32);" cx="300.383" cy="227.415" r="10.841" id="id_125"></circle>
	<path style="fill: rgb(218, 165, 32);" d="M300.383,239.256c-6.529,0-11.84-5.312-11.84-11.84s5.312-11.841,11.84-11.841
		s11.841,5.312,11.841,11.841S306.911,239.256,300.383,239.256z M300.383,217.575c-5.426,0-9.84,4.415-9.84,9.841
		c0,5.426,4.415,9.84,9.84,9.84c5.426,0,9.841-4.415,9.841-9.84C310.223,221.989,305.809,217.575,300.383,217.575z" id="id_126"></path>
</g>
<g>
	<path style="fill: rgb(148, 121, 38);" d="M199.17,392.774L199.17,392.774c-5.189,0-9.435-4.246-9.435-9.435v-4.261
		c0-5.189,4.246-9.435,9.435-9.435h0c5.189,0,9.435,4.246,9.435,9.435v4.261C208.605,388.529,204.36,392.774,199.17,392.774z" id="id_127"></path>
</g>
<g>
	<path style="fill: rgb(148, 121, 38);" d="M257.571,392.774L257.571,392.774c-5.189,0-9.435-4.246-9.435-9.435v-4.261
		c0-5.189,4.246-9.435,9.435-9.435l0,0c5.189,0,9.435,4.246,9.435,9.435v4.261C267.006,388.529,262.76,392.774,257.571,392.774z" id="id_128"></path>
</g>
<g>
</g>
<g>
</g>
<g>
</g>
<g>
</g>
<g>
</g>
<g>
</g>
<g>
</g>
<g>
</g>
<g>
</g>
<g>
</g>
<g>
</g>
<g>
</g>
<g>
</g>
<g>
</g>
<g>
</g>
</svg>