<svg id="artwork" xmlns="http://www.w3.org/2000/svg" viewBox="0 0 512 512"><title>rabbit</title><g id="Rabbit"><path d="M477.4,221.94A38.75,38.75,0,1,0,400,223.49c-24.55-11.41-53.46-14.85-82.72-9.36a188.14,188.14,0,0,1-31,3.13l-16,.29c-2.71,0-5.42.12-8.12.18-13.19.31-25.65.6-38-.57a101,101,0,0,1-38.54-11.94c1.67-5.3,4-9.08,6.66-10.54,51.32-28,82.66-67.68,90.65-114.86a8.75,8.75,0,0,0-3.22-8.5c-2.83-2.19-7.78-3.9-23.06.05a148,148,0,0,0-20,6.69c-2.86,1.27-5.62,2.61-8.32,4,.2-1.72.31-3.33.41-4.77.06-1,.12-1.88.21-2.71a9.63,9.63,0,0,0-1.62-6.69c-4-5.72-12.68-4.21-20.61-2a126.92,126.92,0,0,0-18.63,7c-18.69,9-28.93,25.12-33.37,33.91-3.65,7.22-6.9,18-13.38,39.49a105.79,105.79,0,0,1-5.68,14.44c-2.28,5-10.57,12.53-15.56,16.41A90,90,0,0,0,67.1,206.28l-19.43,21.8a29.76,29.76,0,0,0-13.07,24.7c0,2.05.57,13.59,3.3,18.68A28.45,28.45,0,0,0,47,281.66l3.21,2.15a76.27,76.27,0,0,0,18.64,9.3l1,.34h0a87.18,87.18,0,0,0,19.19,3.71c1.43.13,3,.24,4.88.34,2.19.1,4.47.15,7,.15,2,0,4-.06,6-.17,1.46-.07,2.92-.19,4.38-.33,20.92,7.21,34.09,19.21,42.55,38.79a91.48,91.48,0,0,1,7.37,36.59v35.41A35.12,35.12,0,0,0,136,441.58v6.5h51.29l25.5-56.17a150.21,150.21,0,0,0,19.45,6.35,152.57,152.57,0,0,0,44.08,4.25,68.39,68.39,0,0,0,5.54,4.39H242.79a34.69,34.69,0,0,0-34.68,34.69v6.49h118a6.5,6.5,0,0,0,6.5-6.5h0a6.5,6.5,0,0,0-6.5-6.5h-104a21.73,21.73,0,0,1,20.69-15.18H316.1a6.53,6.53,0,0,0,6.54-6.53v-.27a6.58,6.58,0,0,0-6-6.51,55.48,55.48,0,0,1-5.89-.92,57.24,57.24,0,0,1-26.25-13.27l-.37-.33a57.71,57.71,0,0,1-14.9-21.52,56,56,0,0,1-2.83-9.52c-.06-.3-.12-.61-.19-1a57.4,57.4,0,0,1,50.54-67.55,6.44,6.44,0,0,0,5.86-6.38v-.2a6.41,6.41,0,0,0-7.05-6.37,70.4,70.4,0,0,0-62.14,82.82c.07.41.15.81.24,1.27a71.12,71.12,0,0,0,3.47,11.69,70.1,70.1,0,0,0,7.67,14.3,133.74,133.74,0,0,1-49.72-10.84l-.09,0A9.87,9.87,0,0,0,203.2,382l-.43.59L179,435.08H150a22.08,22.08,0,0,1,21.07-15.55h4.31a6.5,6.5,0,0,0,6.5-6.5h0a6.5,6.5,0,0,0-6.5-6.5h-1.15v-34a104.4,104.4,0,0,0-8.44-41.75c-7.3-16.89-17.92-29.26-32.74-38a111,111,0,0,0,15.09-5.89l.88-.42a6.5,6.5,0,0,0,3.05-8.67h0a6.5,6.5,0,0,0-8.67-3.06l-.89.43a95.93,95.93,0,0,1-36.29,9.29c-1.76.1-3.53.15-5.26.15-2.3,0-4.38,0-6.34-.14-1.71-.08-3.08-.18-4.37-.3A73.46,73.46,0,0,1,73,280.78l-.37-.12a62.92,62.92,0,0,1-14.72-7.35,26,26,0,0,0,8.45-9.56,25.63,25.63,0,0,0,1.6-19.7A25.19,25.19,0,0,0,60.74,233l16.07-18a76.3,76.3,0,0,1,54.68-25.79l2.11,0H143a16.1,16.1,0,0,0,16.59-11.72c5.59-20.05,30-64.15,82.37-87.47,6.64-3,20.41-7.1,27.3-7.87-8.51,41.71-36.49,75.74-83.22,101.21-12.22,6.65-15.24,25.13-16,35.55a41.78,41.78,0,0,0,0,4.23,6.51,6.51,0,0,0,7.83,6.13h0a6.48,6.48,0,0,0,5.16-6.62c0-1.11-.05-2.15,0-2.85,0-.38.06-.74.09-1.12a113.55,113.55,0,0,0,39.77,11.51c13.08,1.25,26.51.93,39.5.63,2.69-.06,5.37-.13,8.06-.18l16-.3a200.87,200.87,0,0,0,33.14-3.34c35.92-6.73,71.1,1.23,96.52,21.84,22.16,18,34.74,44.29,35.41,74.07q0,1.26,0,2.52A109.87,109.87,0,0,1,348,434.91a6.47,6.47,0,0,0-6.09,6.48h0a6.52,6.52,0,0,0,6.86,6.5A122.9,122.9,0,0,0,464.6,325.34c0-.94,0-1.88,0-2.81-.53-23.49-7.66-45.09-20.47-62.95a38.74,38.74,0,0,0,33.3-37.64Zm-426,20.14a12.28,12.28,0,0,1,4.19,6,12.67,12.67,0,0,1-.8,9.76,12.93,12.93,0,0,1-6,5.76,59.51,59.51,0,0,1-1.24-10.8A16.76,16.76,0,0,1,51.43,242.08Zm95.67-68.17a3.11,3.11,0,0,1-3.25,2.24h-3.41a41.1,41.1,0,0,0,7.08-10,116.54,116.54,0,0,0,6.31-16.1c6.07-20.11,9.4-31.19,12.54-37.39,3-5.9,11.61-20.43,27.42-28.06,7-3.37,16.7-6.59,22-7.48-.35,5.08-.93,10.71-5.32,15.52C171.51,119,152.22,155.55,147.1,173.91Zm265.85,49a25.79,25.79,0,0,1,21.74-27.13,21.37,21.37,0,0,1-19.27,36.33l-.16-.11A25.4,25.4,0,0,1,413,222.92ZM458,238.21a25.72,25.72,0,0,1-25.19,8.09c-.79-.79-1.6-1.57-2.41-2.34a34.36,34.36,0,0,0,21.73-44.64A25.72,25.72,0,0,1,458,238.21Z" id="id_101" style="fill: rgb(218, 165, 32);"></path><path d="M92.58,214.3a5.36,5.36,0,1,0,6.73,3.55A5.36,5.36,0,0,0,92.58,214.3Z" id="id_102" style="fill: rgb(218, 165, 32);"></path></g></svg>