<svg version="1.1" id="Layer_1" xmlns="http://www.w3.org/2000/svg" xmlns:xlink="http://www.w3.org/1999/xlink" x="0px" y="0px" viewBox="0 0 64 64" enable-background="new 0 0 64 64" xml:space="preserve">
<path d="M32,32c2.2,0,4-1.6,4-3.5S34.2,25,32,25s-4,1.6-4,3.5S29.8,32,32,32z M33,28h1v2h-1V28z M30,28h1v2h-1V28z" id="id_129" style="fill: rgb(218, 165, 32);"></path>
<path d="M13.6,17.2c2,1.4,3.5,1.1,4.5,0.9c0.3-0.1,0.6-0.1,0.9-0.1c0.3,0,0.6,0.2,0.8,0.4l2,3c0.1,0.2,0.2,0.4,0.2,0.6v4.6
	c0,1.4,0.4,2.8,1.1,4c1,1.7,2.6,2.9,4.5,3.4l3.6,1h1.7l3.6-1c1.9-0.5,3.5-1.8,4.5-3.4c0.7-1.2,1.1-2.6,1.1-4V22
	c0-0.2,0.1-0.4,0.2-0.6l2-3c0.2-0.3,0.5-0.4,0.8-0.4c0.3,0,0.6,0.1,0.9,0.1c1,0.2,2.5,0.4,4.5-0.9c1.8-1.2,1.2-4.7,0.8-7
	C51.1,9.3,51,8.6,51,8c0-1.1,0.3-2.5,0.5-3.5l-3.8,1.1c-2.6,0.8-4.9,2.5-6.5,4.8l-1.4,2.2c-0.3,0.4-0.8,0.5-1.2,0.4l-3.1-1.3
	c-2.2-0.9-4.7-0.9-7,0l-3.1,1.3c-0.4,0.2-0.9,0-1.2-0.4l-1.4-2.2c-1.5-2.3-3.8-4-6.5-4.8l-3.8-1.1C12.7,5.5,13,6.9,13,8
	c0,0.6-0.1,1.3-0.3,2.2C12.4,12.5,11.8,16,13.6,17.2z M44.9,7.8c0.7-0.8,2-0.9,2.8-0.1C45.9,9.5,44,12,44,13c0,1.7,0.9,3.5,0.9,3.6
	c-1,0.5-2.2,0-2.5-1.1C42.2,14.7,42,13.9,42,13C42,11.5,43.6,9.3,44.9,7.8z M38,20c0.6,0,1,0.4,1,1c0,0.6-0.4,1-1,1s-1-0.4-1-1
	C37,20.4,37.4,20,38,20z M32,23c3.3,0,6,2.5,6,5.5S35.3,34,32,34s-6-2.5-6-5.5S28.7,23,32,23z M26,20c0.6,0,1,0.4,1,1
	c0,0.6-0.4,1-1,1s-1-0.4-1-1C25,20.4,25.4,20,26,20z M16.4,7.6c0.7-0.7,1.9-0.7,2.6,0.1c1.3,1.5,3,3.7,3,5.3c0,0.9-0.2,1.7-0.4,2.4
	c-0.3,1.1-1.5,1.6-2.5,1.1c0,0,0.9-1.8,0.9-3.6C20,12,18.1,9.5,16.4,7.6L16.4,7.6z" id="id_130" style="fill: rgb(218, 165, 32);"></path>
<path d="M50,30.7c0.2,0.7,0.8,2.3,2,2.6c0.3,0.1,1,0.2,1.7-0.4c1.9-1.7,1.2-3.1,0.9-3.5c-0.6-0.8-1.9-1.3-3.1-1.3
	c-0.2-1-0.4-2-0.5-3.2l-2,0.3c0.2,1.2,0.4,2.3,0.6,3.4c0,0,0,0,0,0c-1.1,0.6-2.2,1.5-3,2.4c-0.6-1.4-1.5-2.7-2.6-4.1
	c-0.1,1.6-0.5,3.2-1.4,4.6c-1.3,2.1-3.3,3.7-5.6,4.3L33.3,37c-0.1,0-0.2,0-0.3,0h-2c-0.1,0-0.2,0-0.3,0L27,35.9
	c-2.4-0.7-4.4-2.2-5.6-4.3c-0.8-1.4-1.3-3-1.4-4.6c-2.6,2.9-3.8,5.5-4,11.1c-0.3,7,4.8,19,6.3,21c0,0,0.1,0.2,0.3,0.4
	C21.6,59.9,21,60.9,21,62h7V51.8c-1.3-1.1-4.2-2.5-4.7-4.1c-0.4-1.1,0.4-2.2,1.6-2.3l0,0c0.2,2,1.1,3.8,2.7,5c2.6,2.1,6.3,2.1,9,0
	c1.7-1.4,2.7-3.4,2.7-5.6c1.1,0,2,1.1,1.7,2.2c-0.4,1.8-3.5,3.5-4.9,4.8V62h7c0-0.9-0.4-1.6-1-2.2c0-0.1,0-0.2,0.1-0.3
	c0.1-0.1,5.6-11.1,5.9-20.6c0.1-2.2-0.2-4.1-0.7-5.8C48.1,32.3,49,31.3,50,30.7z M53,30.6c0,0,0,0.3-0.5,0.7
	c-0.2-0.2-0.4-0.7-0.6-1.1C52.5,30.2,52.9,30.4,53,30.6z" id="id_131" style="fill: rgb(218, 165, 32);"></path>
</svg>